<?xml version="1.0" encoding="UTF-8" standalone="no"?>
<svg
   xmlns:dc="http://purl.org/dc/elements/1.1/"
   xmlns:cc="http://creativecommons.org/ns#"
   xmlns:rdf="http://www.w3.org/1999/02/22-rdf-syntax-ns#"
   xmlns:svg="http://www.w3.org/2000/svg"
   xmlns="http://www.w3.org/2000/svg"
   xmlns:sodipodi="http://sodipodi.sourceforge.net/DTD/sodipodi-0.dtd"
   xmlns:inkscape="http://www.inkscape.org/namespaces/inkscape"
   width="99.999779mm"
   height="99.998062mm"
   viewBox="0 0 99.999774 99.998063"
   version="1.1"
   id="svg8"
   sodipodi:docname="logo.svg"
   inkscape:version="1.0.2 (e86c870879, 2021-01-15)">
  <defs
     id="defs2" />
  <sodipodi:namedview
     id="base"
     pagecolor="#ffffff"
     bordercolor="#666666"
     borderopacity="1.0"
     inkscape:pageopacity="0.0"
     inkscape:pageshadow="2"
     inkscape:zoom="1.4"
     inkscape:cx="243.57818"
     inkscape:cy="207.82928"
     inkscape:document-units="mm"
     inkscape:current-layer="layer1"
     inkscape:document-rotation="0"
     showgrid="false"
     inkscape:window-width="1920"
     inkscape:window-height="1004"
     inkscape:window-x="1920"
     inkscape:window-y="0"
     inkscape:window-maximized="1" />
  <metadata
     id="metadata5">
    <rdf:RDF>
      <cc:Work
         rdf:about="">
        <dc:format>image/svg+xml</dc:format>
        <dc:type
           rdf:resource="http://purl.org/dc/dcmitype/StillImage" />
        <dc:title></dc:title>
      </cc:Work>
    </rdf:RDF>
  </metadata>
  <g
     inkscape:label="Ebene 1"
     inkscape:groupmode="layer"
     id="layer1"
     transform="translate(-53.475828,-80.690304)">
    <rect
       style="fill:#009bff;fill-opacity:0.951157;stroke:none;stroke-width:1.454;stroke-linecap:round;stroke-linejoin:round;stroke-miterlimit:4;stroke-dasharray:none;stroke-opacity:1;paint-order:stroke fill markers;stop-color:#000000"
       id="rect899"
       x="53.475826"
       y="80.690308"
       width="100"
       height="100"
       ry="16.016003" />
    <path
       style="fill:#004a7a;stroke-width:0.0889576;fill-opacity:0.95294118"
       d="m 89.330663,158.18715 v -0.87569 l 1.578994,-0.0605 c 2.428963,-0.093 4.022218,-0.36007 4.948559,-0.82948 0.888603,-0.45029 1.796153,-1.62491 2.280184,-2.95118 0.560296,-1.53525 0.573315,-1.71362 0.575383,-7.8839 l 0.002,-5.60367 -0.533742,-0.0685 c -5.297438,-0.67964 -10.294126,-1.85661 -13.726514,-3.23327 -2.262541,-0.90747 -3.791805,-1.85047 -4.910182,-3.02783 -2.971401,-3.12812 -4.879178,-7.86305 -5.468918,-13.57337 -0.107883,-1.04461 -0.135402,-2.63755 -0.13601,-7.87272 -3.36e-4,-3.60973 -0.03998,-7.00347 -0.08791,-7.54167 -0.185969,-2.08802 -0.810696,-3.43641 -1.834357,-3.95918 -0.419074,-0.21402 -0.505465,-0.22285 -2.458117,-0.25133 l -2.023778,-0.0295 v -1.099224 -1.099224 l 0.378068,-0.0478 c 0.698066,-0.0882 4.638095,-0.1204 5.60584,-0.0459 2.588054,0.19932 4.681919,0.847724 6.07485,1.881198 1.551579,1.15117 2.616838,3.68544 3.282399,7.80888 0.464739,2.87925 0.636642,5.5866 0.71452,11.2531 0.06927,5.03964 0.231065,7.29955 0.666082,9.30341 0.847931,3.90592 3.051205,6.25336 7.25223,7.72676 1.828534,0.64132 4.416194,1.17058 6.386642,1.30631 l 0.871286,0.06 -0.03298,-16.13692 c -0.02989,-14.62952 -0.04676,-16.19924 -0.180601,-16.80409 -0.305701,-1.3815 -1.126412,-2.58089 -2.099319,-3.06796 -1.009748,-0.50551 -2.691789,-0.80604 -4.989523,-0.89147 l -1.289878,-0.0479 0.0033,-1.221014 0.0033,-1.220994 H 103.475 116.76752 l 0.004,1.220994 0.004,1.221014 -1.28989,0.0479 c -2.29773,0.0854 -3.97976,0.38596 -4.98952,0.89147 -0.9909,0.49607 -1.81597,1.71852 -2.10281,3.1156 -0.13078,0.63696 -0.14865,2.33187 -0.17701,16.78753 l -0.0315,16.07902 h 0.38391 c 1.35559,0 4.68063,-0.6185 6.47142,-1.20378 4.59171,-1.50068 6.90633,-3.96883 7.7307,-8.24353 0.40269,-2.08812 0.52156,-4.02961 0.63339,-10.34568 0.11736,-6.62758 0.47038,-9.9874 1.3773,-13.10821 0.68722,-2.36477 1.50049,-3.76665 2.6636,-4.591387 1.4835,-1.051914 3.43961,-1.634561 6.12071,-1.823111 1.15512,-0.0812 4.65029,-0.0489 5.47129,0.0507 l 0.37807,0.0458 v 1.099224 1.099224 l -2.02378,0.0302 c -1.99928,0.0298 -2.02931,0.0331 -2.4803,0.27032 -0.82951,0.43635 -1.35168,1.32061 -1.69601,2.87204 -0.11611,0.52316 -0.14875,1.87408 -0.20424,8.45094 -0.071,8.42022 -0.0772,8.53826 -0.58494,11.07519 -0.86405,4.31784 -2.59867,7.96431 -4.99904,10.50883 -1.4049,1.48927 -3.54499,2.65609 -6.91512,3.77024 -3.08853,1.02107 -7.52067,1.96885 -11.74236,2.51106 l -0.53375,0.0686 0.002,5.60368 c 0.002,6.17076 0.0147,6.34672 0.57564,7.8839 0.48403,1.32628 1.39158,2.50089 2.28018,2.95118 0.92781,0.47016 2.53397,0.7398 4.94856,0.83075 l 1.579,0.0595 v 0.87553 0.87554 H 103.47533 89.331128 v -0.87568 z"
       id="path879" />
  </g>
</svg>
